<?xml version="1.0" encoding="UTF-8" standalone="no"?>
<!-- Created with Inkscape (http://www.inkscape.org/) -->

<svg
   width="352.00601mm"
   height="86.214996mm"
   viewBox="0 0 352.00605 86.214996"
   version="1.1"
   id="svg5"
   inkscape:version="1.1 (c68e22c387, 2021-05-23)"
   sodipodi:docname="name.svg"
   xmlns:inkscape="http://www.inkscape.org/namespaces/inkscape"
   xmlns:sodipodi="http://sodipodi.sourceforge.net/DTD/sodipodi-0.dtd"
   xmlns="http://www.w3.org/2000/svg"
   xmlns:svg="http://www.w3.org/2000/svg">
  <sodipodi:namedview
     id="namedview7"
     pagecolor="#ffffff"
     bordercolor="#999999"
     borderopacity="1"
     inkscape:pageshadow="0"
     inkscape:pageopacity="0"
     inkscape:pagecheckerboard="0"
     inkscape:document-units="mm"
     showgrid="false"
     width="352.007cm"
     inkscape:zoom="1"
     inkscape:cx="242.5"
     inkscape:cy="174.5"
     inkscape:window-width="1366"
     inkscape:window-height="697"
     inkscape:window-x="-8"
     inkscape:window-y="-8"
     inkscape:window-maximized="1"
     inkscape:current-layer="layer1"
     units="mm"
     height="86.215mm" />
  <defs
     id="defs2" />
  <g
     inkscape:label="Camada 1"
     inkscape:groupmode="layer"
     id="layer1">
    <g
       id="g28547"
       transform="translate(0,-2.9247371e-4)">
      <g
         id="g10678"
         transform="translate(-5.0854448e-7,-0.62215787)">
        <g
           id="g18597"
           style="fill:#f9f9f9;fill-opacity:1"
           transform="matrix(0.99999524,0,0,0.99999524,-90.24579,-168.56698)">
          <path
             id="path54525"
             style="font-weight:900;font-size:74.9147px;line-height:1.25;font-family:Lato;-inkscape-font-specification:'Lato Heavy';fill:#f9f9f9;fill-opacity:1;stroke-width:1.87287"
             d="m 112.34634,169.7145 c -2.89671,0 -5.39393,0.44926 -7.49154,1.34824 -2.09761,0.87401 -3.82072,2.04791 -5.16919,3.52123 -1.348467,1.44835 -2.346939,3.12149 -2.9962,5.01933 -0.649258,1.87287 -0.9741,3.79537 -0.9741,5.76813 v 1.34875 h -5.468917 v 4.56975 c 0,0.82406 0.262115,1.44824 0.786517,1.87275 0.549378,0.42452 1.261268,0.73661 2.135269,0.93638 l 2.547131,0.52452 v 30.86478 H 107.327 V 194.6613 h 8.01605 v -7.94112 h -8.3907 v -1.34875 c 0,-2.49716 0.61194,-4.39467 1.83555,-5.6932 1.24858,-1.32349 3.0589,-1.9854 5.43119,-1.9854 0.74915,0 1.71091,0.0377 2.88458,0.11265 1.19863,0.05 2.43475,0.0994 3.7083,0.14935 v 47.53353 h 11.53676 v -54.20186 -1.12241 -0.44804 c -6.55222,2.7e-4 -13.71175,1.6e-4 -20.00239,-0.002 z"
             sodipodi:nodetypes="ccccsccscccccccccscscccccccc" />
          <path
             d="m 168.60721,225.48846 q -1.64812,0 -2.50964,-0.44949 -0.82406,-0.44949 -1.38592,-1.87287 l -0.82406,-2.13507 q -1.46084,1.23609 -2.8093,2.17253 -1.34847,0.93643 -2.80931,1.61066 -1.42338,0.63678 -3.0715,0.93644 -1.61067,0.33711 -3.5959,0.33711 -2.65948,0 -4.832,-0.67423 -2.17253,-0.71169 -3.70828,-2.06015 -1.49829,-1.34847 -2.32236,-3.33371 -0.82406,-2.02269 -0.82406,-4.64471 0,-2.06015 1.04881,-4.23268 1.0488,-2.17253 3.63336,-3.93302 2.58456,-1.79795 6.96707,-2.99659 4.38251,-1.19863 11.04992,-1.34846 v -1.64813 q 0,-3.40862 -1.42338,-4.90691 -1.38592,-1.53575 -3.97048,-1.53575 -2.06016,0 -3.37116,0.44949 -1.31101,0.44948 -2.35982,1.01134 -1.01135,0.56186 -1.98524,1.01135 -0.97389,0.44949 -2.32235,0.44949 -1.19864,0 -2.06016,-0.56186 -0.82406,-0.59932 -1.311,-1.46084 l -2.09762,-3.63336 q 3.521,-3.10896 7.79113,-4.60725 4.3076,-1.53575 9.21451,-1.53575 3.52099,0 6.33029,1.16117 2.84676,1.12372 4.79455,3.18388 1.98524,2.0227 3.03404,4.832 1.04881,2.8093 1.04881,6.143 v 24.27237 z m -13.33481,-7.07944 q 2.24744,0 3.93302,-0.78661 1.68558,-0.7866 3.40862,-2.5471 v -5.39386 q -3.48354,0.14983 -5.73098,0.59932 -2.24744,0.44949 -3.55845,1.12372 -1.311,0.67423 -1.83541,1.53575 -0.48694,0.86152 -0.48694,1.87287 0,1.98524 1.08626,2.8093 1.08626,0.78661 3.18388,0.78661 z"
             style="font-weight:900;font-size:74.9147px;line-height:1.25;font-family:Lato;-inkscape-font-specification:'Lato Heavy';fill:#f9f9f9;fill-opacity:1;stroke-width:1.87287"
             id="path54527" />
          <path
             d="m 202.16893,225.48846 h -10.56297 l -15.05785,-38.84328 h 9.66399 q 1.23609,0 2.06016,0.59932 0.86152,0.56186 1.16117,1.42338 l 5.39386,17.41767 q 0.63678,2.13507 1.19864,4.15776 0.59932,2.0227 1.01135,4.0454 0.41203,-2.0227 1.01135,-4.0454 0.59931,-2.02269 1.27355,-4.15776 l 5.6186,-17.41767 q 0.29966,-0.86152 1.12372,-1.42338 0.82406,-0.59932 1.94778,-0.59932 h 9.21451 z"
             style="font-weight:900;font-size:74.9147px;line-height:1.25;font-family:Lato;-inkscape-font-specification:'Lato Heavy';fill:#f9f9f9;fill-opacity:1;stroke-width:1.87287"
             id="path54529" />
          <path
             d="m 234.08255,186.64518 v 38.84328 h -11.61177 v -38.84328 z m 1.34847,-10.63789 q 0,1.38593 -0.56186,2.62202 -0.56186,1.19863 -1.53575,2.13507 -0.97389,0.89897 -2.2849,1.46083 -1.27355,0.52441 -2.73439,0.52441 -1.42338,0 -2.65947,-0.52441 -1.23609,-0.56186 -2.20998,-1.46083 -0.93644,-0.93644 -1.4983,-2.13507 -0.5244,-1.23609 -0.5244,-2.62202 0,-1.42337 0.5244,-2.65947 0.56186,-1.23609 1.4983,-2.17252 0.97389,-0.93644 2.20998,-1.46084 1.23609,-0.5244 2.65947,-0.5244 1.46084,0 2.73439,0.5244 1.31101,0.5244 2.2849,1.46084 0.97389,0.93643 1.53575,2.17252 0.56186,1.2361 0.56186,2.65947 z"
             style="font-weight:900;font-size:74.9147px;line-height:1.25;font-family:Lato;-inkscape-font-specification:'Lato Heavy';fill:#f9f9f9;fill-opacity:1;stroke-width:1.87287"
             id="path54531" />
          <path
             d="m 260.75218,186.04586 q 4.41996,0 8.05333,1.38593 3.63336,1.38592 6.21792,3.97048 2.62201,2.58455 4.04539,6.29283 1.46084,3.67082 1.46084,8.27808 0,4.64471 -1.46084,8.39044 -1.42338,3.70828 -4.04539,6.3303 -2.58456,2.58455 -6.21792,4.00793 -3.63337,1.38592 -8.05333,1.38592 -4.45743,0 -8.12825,-1.38592 -3.63336,-1.42338 -6.29283,-4.00793 -2.62202,-2.62202 -4.08286,-6.3303 -1.42338,-3.74573 -1.42338,-8.39044 0,-4.60726 1.42338,-8.27808 1.46084,-3.70828 4.08286,-6.29283 2.65947,-2.58456 6.29283,-3.97048 3.67082,-1.38593 8.12825,-1.38593 z m 0,31.42672 q 4.00793,0 5.8808,-2.8093 1.91032,-2.84676 1.91032,-8.61519 0,-5.76843 -1.91032,-8.57773 -1.87287,-2.8093 -5.8808,-2.8093 -4.12031,0 -6.03064,2.8093 -1.91032,2.8093 -1.91032,8.57773 0,5.76843 1.91032,8.61519 1.91033,2.8093 6.03064,2.8093 z"
             style="font-weight:900;font-size:74.9147px;line-height:1.25;font-family:Lato;-inkscape-font-specification:'Lato Heavy';fill:#f9f9f9;fill-opacity:1;stroke-width:1.87287"
             id="path54533" />
        </g>
        <g
           aria-label="marbs"
           id="text6197"
           style="font-size:69.4052px;line-height:1.25;fill:#13cfda;stroke-width:1.73513"
           transform="matrix(0.76262634,0,0,0.76262634,-21.116388,-114.84839)">
          <path
             d="m 298.53437,225.46385 v -35.98659 h 6.6629 q 1.00637,0 1.66572,0.45113 0.69405,0.45113 0.97167,1.3534 l 0.58995,1.94335 q 0.90227,-0.93697 1.87394,-1.70043 0.97167,-0.79816 2.08215,-1.3534 1.14519,-0.58994 2.42919,-0.90227 1.3187,-0.34702 2.88031,-0.34702 3.26205,0 5.37891,1.70042 2.15156,1.66573 3.26204,4.47664 0.90227,-1.66573 2.18626,-2.84561 1.3187,-1.17989 2.81091,-1.90865 1.52692,-0.72875 3.19264,-1.07578 1.70043,-0.34702 3.36615,-0.34702 3.08854,0 5.48302,0.93697 2.39447,0.90226 3.99079,2.6721 1.63103,1.73513 2.46389,4.30312 0.83286,2.53329 0.83286,5.76063 v 22.86901 h -10.7578 v -22.86901 q 0,-5.58712 -4.78896,-5.58712 -2.18627,0 -3.64378,1.45751 -1.4228,1.42281 -1.4228,4.12961 v 22.86901 h -10.75781 v -22.86901 q 0,-3.08853 -1.21459,-4.33783 -1.21459,-1.24929 -3.57437,-1.24929 -1.45751,0 -2.7762,0.65935 -1.284,0.65935 -2.42919,1.76983 v 26.02695 z"
             style="font-weight:900;font-family:Lato;-inkscape-font-specification:'Lato Heavy'"
             id="path18474" />
          <path
             d="m 383.13918,225.46385 q -1.52692,0 -2.32508,-0.41643 -0.76346,-0.41643 -1.28399,-1.73513 l -0.76346,-1.97805 q -1.3534,1.14519 -2.6027,2.01275 -1.24929,0.86757 -2.60269,1.49222 -1.3187,0.58994 -2.84561,0.86756 -1.49222,0.31232 -3.33145,0.31232 -2.46389,0 -4.47664,-0.62464 -2.01275,-0.65935 -3.43556,-1.90865 -1.3881,-1.24929 -2.15156,-3.08853 -0.76345,-1.87394 -0.76345,-4.30312 0,-1.90864 0.97167,-3.92139 0.97167,-2.01275 3.36615,-3.64378 2.39448,-1.66572 6.45468,-2.7762 4.06021,-1.11049 10.23727,-1.2493 v -1.52691 q 0,-3.15794 -1.3187,-4.54604 -1.28399,-1.42281 -3.67847,-1.42281 -1.90865,0 -3.12324,0.41643 -1.21459,0.41643 -2.18626,0.93697 -0.93697,0.52054 -1.83924,0.93697 -0.90227,0.41643 -2.15156,0.41643 -1.11048,0 -1.90864,-0.52054 -0.76346,-0.55524 -1.21459,-1.3534 l -1.94335,-3.36615 q 3.26204,-2.88031 7.21814,-4.26842 3.9908,-1.4228 8.53684,-1.4228 3.26204,0 5.86474,1.07578 2.6374,1.04107 4.44193,2.94972 1.83924,1.87394 2.81091,4.47663 0.97168,2.6027 0.97168,5.69123 v 22.48728 z m -12.35413,-6.55879 q 2.08216,0 3.64377,-0.72875 1.56162,-0.72876 3.15794,-2.35978 v -4.99717 q -3.22734,0.13881 -5.3095,0.55524 -2.08215,0.41643 -3.29674,1.04107 -1.21459,0.62465 -1.70043,1.42281 -0.45114,0.79816 -0.45114,1.73513 0,1.83924 1.00638,2.6027 1.00638,0.72875 2.94972,0.72875 z"
             style="font-weight:900;font-family:Lato;-inkscape-font-specification:'Lato Heavy'"
             id="path18476" />
          <path
             d="m 395.70148,225.46385 v -35.98659 h 6.38528 q 0.79816,0 1.3187,0.13881 0.55524,0.13881 0.90227,0.45113 0.38173,0.27762 0.55524,0.76346 0.20821,0.48583 0.34702,1.17989 l 0.58995,3.36615 q 1.97805,-3.05383 4.44193,-4.82366 2.46389,-1.76983 5.3789,-1.76983 2.46389,0 3.9561,1.17988 l -1.3881,7.9122 q -0.13881,0.72875 -0.55525,1.04107 -0.41643,0.27762 -1.11048,0.27762 -0.58994,0 -1.3881,-0.13881 -0.79816,-0.17351 -2.01275,-0.17351 -4.23372,0 -6.6629,4.51134 v 22.07085 z"
             style="font-weight:900;font-family:Lato;-inkscape-font-specification:'Lato Heavy'"
             id="path18478" />
          <path
             d="m 424.3657,225.46385 v -51.94979 h 10.75781 v 19.78048 q 2.01275,-1.97805 4.54604,-3.15793 2.56799,-1.21459 6.00355,-1.21459 2.81091,0 5.20539,1.21459 2.39448,1.21459 4.12961,3.57436 1.73513,2.32508 2.7068,5.72593 1.00638,3.40086 1.00638,7.73868 0,4.06021 -1.14519,7.49576 -1.11048,3.43556 -3.15793,5.96885 -2.01276,2.53329 -4.85837,3.9561 -2.81091,1.4228 -6.24647,1.4228 -1.59632,0 -2.88031,-0.31232 -1.2493,-0.31232 -2.32508,-0.86756 -1.04107,-0.58995 -1.94334,-1.38811 -0.86757,-0.79816 -1.70043,-1.73513 l -0.38173,1.80454 q -0.24292,1.11048 -0.90227,1.52691 -0.62464,0.41643 -1.66572,0.41643 z m 17.55952,-28.45613 q -1.17989,0 -2.15156,0.24292 -0.93697,0.20821 -1.76983,0.62465 -0.79816,0.41643 -1.49222,1.07578 -0.69405,0.62464 -1.3881,1.45751 v 15.26914 q 1.21459,1.3534 2.6374,1.90864 1.4228,0.52054 2.98442,0.52054 1.49221,0 2.74151,-0.58994 1.24929,-0.58995 2.15156,-1.87394 0.93697,-1.3187 1.45751,-3.40086 0.52054,-2.08215 0.52054,-5.06658 0,-2.84561 -0.41644,-4.78896 -0.41643,-1.94334 -1.17988,-3.12323 -0.72876,-1.21459 -1.76984,-1.73513 -1.04107,-0.52054 -2.32507,-0.52054 z"
             style="font-weight:900;font-family:Lato;-inkscape-font-specification:'Lato Heavy'"
             id="path18480" />
          <path
             d="m 486.62216,197.35475 q -0.41643,0.65935 -0.90226,0.93697 -0.45114,0.27762 -1.17989,0.27762 -0.76346,0 -1.52692,-0.31233 -0.76345,-0.34702 -1.66572,-0.72875 -0.86756,-0.38173 -1.97805,-0.69405 -1.11048,-0.34703 -2.53329,-0.34703 -2.04745,0 -3.15793,0.79816 -1.07578,0.76346 -1.07578,2.15156 0,1.00638 0.69405,1.66573 0.72875,0.65935 1.90864,1.17989 1.17989,0.48583 2.6721,0.93697 1.49221,0.45113 3.05383,1.00637 1.56162,0.55524 3.05383,1.3187 1.49221,0.72875 2.6721,1.83924 1.17989,1.07578 1.87394,2.6374 0.72875,1.56161 0.72875,3.74788 0,2.6721 -0.97167,4.92777 -0.97167,2.25566 -2.91502,3.88669 -1.90864,1.63102 -4.75425,2.53329 -2.81092,0.90226 -6.48939,0.90226 -1.83924,0 -3.67848,-0.34702 -1.83923,-0.34703 -3.57436,-0.93697 -1.70043,-0.58995 -3.15794,-1.38811 -1.45751,-0.83286 -2.49859,-1.76983 l 2.49859,-3.9561 q 0.45113,-0.69405 1.07578,-1.07578 0.62465,-0.41643 1.63102,-0.41643 0.93697,0 1.66573,0.41643 0.76345,0.41644 1.63102,0.90227 0.86756,0.48584 2.01275,0.90227 1.17989,0.41643 2.94972,0.41643 1.24929,0 2.11686,-0.24292 0.86756,-0.27762 1.3881,-0.72875 0.52054,-0.45114 0.76346,-1.00638 0.24292,-0.55524 0.24292,-1.14518 0,-1.07578 -0.72876,-1.76984 -0.72875,-0.69405 -1.90864,-1.17988 -1.17989,-0.52054 -2.7068,-0.93697 -1.49221,-0.45114 -3.05383,-1.00638 -1.56162,-0.55524 -3.08853,-1.3187 -1.49221,-0.79816 -2.6721,-1.97805 -1.17989,-1.21459 -1.90864,-2.94972 -0.72876,-1.73513 -0.72876,-4.19901 0,-2.29037 0.86757,-4.33783 0.90226,-2.08215 2.6721,-3.64377 1.76983,-1.56162 4.44193,-2.46388 2.6721,-0.93697 6.24647,-0.93697 1.94334,0 3.74788,0.34702 1.83923,0.34703 3.43555,0.97167 1.59632,0.62465 2.91502,1.49222 1.3187,0.83286 2.32508,1.83923 z"
             style="font-weight:900;font-family:Lato;-inkscape-font-specification:'Lato Heavy'"
             id="path18482" />
        </g>
      </g>
      <g
         id="g27697"
         transform="translate(-5.0854448e-7,5.9924255)">
        <g
           aria-label="Brasileiro, 20 anos, Solteiro"
           id="text10260"
           style="font-weight:500;font-size:15.2164px;font-family:'Montserrat Medium';-inkscape-font-specification:Montserrat-Medium;fill:#df0069;stroke-width:1.79967">
          <path
             d="m 54.43907,70.664961 q 0.9282,0.258679 1.460774,0.943417 0.532574,0.669522 0.532574,1.704237 0,1.384692 -1.049931,2.130296 -1.034716,0.745604 -3.028064,0.745604 h -5.082278 v -10.65148 h 4.77795 q 1.825968,0 2.815034,0.730387 1.004282,0.730387 1.004282,2.023781 0,0.836902 -0.395626,1.445558 -0.38041,0.608656 -1.034715,0.9282 z m -5.645285,-3.895398 v 3.408474 h 3.119362 q 1.171663,0 1.795535,-0.42606 0.639089,-0.441275 0.639089,-1.278177 0,-0.836902 -0.639089,-1.262961 -0.623872,-0.441276 -1.795535,-0.441276 z m 3.499772,8.186423 q 1.293394,0 1.9477,-0.426059 0.654305,-0.426059 0.654305,-1.339043 0,-1.780319 -2.602005,-1.780319 h -3.499772 v 3.545421 z"
             id="path27595" />
          <path
             d="m 63.188467,69.478082 q 0.38041,-0.699954 1.126014,-1.065148 0.745603,-0.365193 1.810751,-0.365193 v 1.415125 q -0.121731,-0.01522 -0.334761,-0.01522 -1.186879,0 -1.871617,0.715171 -0.669521,0.699955 -0.669521,2.008565 v 4.01713 H 61.788558 V 68.12382 h 1.399909 z"
             id="path27597" />
          <path
             d="m 74.052964,68.047741 q 1.673804,0 2.556355,0.821685 0.897768,0.821686 0.897768,2.449841 v 4.869248 h -1.384693 v -1.065148 q -0.365193,0.563007 -1.049931,0.867335 -0.669522,0.289111 -1.597722,0.289111 -1.35426,0 -2.175945,-0.654305 -0.80647,-0.654305 -0.80647,-1.719453 0,-1.065148 0.776037,-1.704237 0.776036,-0.654305 2.465057,-0.654305 h 2.312892 v -0.289112 q 0,-0.943417 -0.54779,-1.445558 -0.54779,-0.502141 -1.612938,-0.502141 -0.715171,0 -1.399909,0.243462 -0.684738,0.228246 -1.156447,0.623873 l -0.608656,-1.095581 q 0.623873,-0.502141 1.491208,-0.76082 0.867334,-0.273895 1.841184,-0.273895 z m -0.334761,7.106058 q 0.836902,0 1.445558,-0.365193 0.608656,-0.38041 0.882551,-1.065148 v -1.126014 h -2.252027 q -1.856401,0 -1.856401,1.247745 0,0.608656 0.471709,0.958633 0.471708,0.349977 1.30861,0.349977 z"
             id="path27599" />
          <path
             d="m 85.739082,76.279813 q -0.989066,0 -1.902051,-0.258679 -0.912984,-0.273895 -1.430341,-0.684738 l 0.608656,-1.156446 q 0.532574,0.38041 1.293394,0.608656 0.76082,0.228246 1.536856,0.228246 1.917267,0 1.917267,-1.095581 0,-0.365194 -0.258679,-0.578223 -0.258679,-0.21303 -0.654305,-0.304328 -0.38041,-0.106515 -1.095581,-0.228246 -0.97385,-0.152164 -1.597722,-0.349977 -0.608656,-0.197814 -1.049932,-0.669522 -0.441275,-0.471708 -0.441275,-1.323827 0,-1.095581 0.912984,-1.749886 0.912984,-0.669521 2.44984,-0.669521 0.806469,0 1.612939,0.197813 0.806469,0.197813 1.323826,0.532574 l -0.623872,1.156446 q -0.989066,-0.639089 -2.328109,-0.639089 -0.928201,0 -1.415125,0.304328 -0.486925,0.304328 -0.486925,0.80647 0,0.395626 0.273895,0.623872 0.273895,0.228246 0.669522,0.334761 0.410842,0.106515 1.14123,0.243462 0.973849,0.167381 1.567289,0.365194 0.608656,0.182597 1.034715,0.639089 0.426059,0.456492 0.426059,1.278177 0,1.095581 -0.943417,1.749886 -0.9282,0.639089 -2.541138,0.639089 z"
             id="path27601" />
          <path
             d="m 94.260272,68.123823 h 1.460775 v 8.064692 h -1.460775 z m 0.730387,-1.552073 q -0.426059,0 -0.71517,-0.273895 -0.273896,-0.273896 -0.273896,-0.669522 0,-0.395626 0.273896,-0.669522 0.289111,-0.289111 0.71517,-0.289111 0.42606,0 0.699955,0.273895 0.289111,0.258679 0.289111,0.654305 0,0.410843 -0.289111,0.699955 -0.273895,0.273895 -0.699955,0.273895 z"
             id="path27603" />
          <path
             d="m 101.71625,64.897946 h 1.46078 v 11.290569 h -1.46078 z"
             id="path27605" />
          <path
             d="m 116.46094,72.201818 q 0,0.16738 -0.0304,0.441275 h -6.54306 q 0.13695,1.065148 0.9282,1.719454 0.80647,0.639088 1.99335,0.639088 1.44556,0 2.32811,-0.973849 l 0.80647,0.943417 q -0.54779,0.639089 -1.36948,0.973849 -0.80646,0.334761 -1.81075,0.334761 -1.27817,0 -2.26724,-0.517357 -0.98907,-0.532574 -1.53686,-1.475991 -0.53257,-0.943417 -0.53257,-2.130296 0,-1.171663 0.51736,-2.11508 0.53257,-0.943417 1.44555,-1.460774 0.9282,-0.532574 2.08465,-0.532574 1.15645,0 2.05422,0.532574 0.91298,0.517357 1.41512,1.460774 0.51736,0.943417 0.51736,2.160729 z m -3.9867,-2.921549 q -1.04993,0 -1.7651,0.639089 -0.69996,0.639089 -0.82169,1.673804 h 5.17358 q -0.12173,-1.019499 -0.8369,-1.658588 -0.69996,-0.654305 -1.74989,-0.654305 z"
             id="path27607" />
          <path
             d="m 121.69536,68.123823 h 1.46078 v 8.064692 h -1.46078 z m 0.73039,-1.552073 q -0.42606,0 -0.71517,-0.273895 -0.2739,-0.273896 -0.2739,-0.669522 0,-0.395626 0.2739,-0.669522 0.28911,-0.289111 0.71517,-0.289111 0.42606,0 0.69995,0.273895 0.28911,0.258679 0.28911,0.654305 0,0.410843 -0.28911,0.699955 -0.27389,0.273895 -0.69995,0.273895 z"
             id="path27609" />
          <path
             d="m 130.55125,69.478082 q 0.38041,-0.699954 1.12601,-1.065148 0.74561,-0.365193 1.81075,-0.365193 v 1.415125 q -0.12173,-0.01522 -0.33476,-0.01522 -1.18688,0 -1.87161,0.715171 -0.66953,0.699955 -0.66953,2.008565 v 4.01713 h -1.46077 V 68.12382 h 1.39991 z"
             id="path27611" />
          <path
             d="m 141.87225,76.279813 q -1.2021,0 -2.16073,-0.532574 -0.95863,-0.532574 -1.50643,-1.460774 -0.53257,-0.943417 -0.53257,-2.130296 0,-1.18688 0.53257,-2.11508 0.5478,-0.943417 1.50643,-1.460774 0.95863,-0.532574 2.16073,-0.532574 1.20209,0 2.14551,0.532574 0.95863,0.517357 1.49121,1.460774 0.54779,0.9282 0.54779,2.11508 0,1.186879 -0.54779,2.130296 -0.53258,0.9282 -1.49121,1.460774 -0.94342,0.532574 -2.14551,0.532574 z m 0,-1.278178 q 0.77603,0 1.38469,-0.349977 0.62387,-0.365193 0.97385,-1.004282 0.34998,-0.654305 0.34998,-1.491207 0,-0.836902 -0.34998,-1.475991 -0.34998,-0.654305 -0.97385,-1.004283 -0.60866,-0.349977 -1.38469,-0.349977 -0.77604,0 -1.39991,0.349977 -0.60866,0.349978 -0.97385,1.004283 -0.34998,0.639089 -0.34998,1.475991 0,0.836902 0.34998,1.491207 0.36519,0.639089 0.97385,1.004282 0.62387,0.349977 1.39991,0.349977 z"
             id="path27613" />
          <path
             d="m 151.47375,74.195166 q 0.42606,0 0.69995,0.304328 0.28911,0.289112 0.28911,0.730388 0,0.228246 -0.0609,0.441275 -0.0456,0.21303 -0.19782,0.654305 l -0.71517,2.11508 h -0.95863 l 0.56301,-2.267244 q -0.28911,-0.106514 -0.47171,-0.349977 -0.16738,-0.258679 -0.16738,-0.593439 0,-0.456493 0.28911,-0.745604 0.28911,-0.289112 0.73039,-0.289112 z"
             id="path27615" />
          <path
             d="m 173.33966,74.864688 v 1.323827 h -7.65385 v -1.034716 l 4.33667,-4.18451 q 0.79126,-0.76082 1.06515,-1.30861 0.2739,-0.563007 0.2739,-1.126014 0,-0.836902 -0.59344,-1.293394 -0.57823,-0.471708 -1.67381,-0.471708 -1.7651,0 -2.72373,1.156446 l -1.03472,-0.897767 q 0.62387,-0.76082 1.62816,-1.186879 1.0195,-0.42606 2.26724,-0.42606 1.6738,0 2.66287,0.80647 0.98907,0.791252 0.98907,2.160728 0,0.852119 -0.3652,1.612939 -0.36519,0.76082 -1.38469,1.734669 l -3.25631,3.134579 z"
             id="path27617" />
          <path
             d="m 182.10431,76.310246 q -1.26296,0 -2.25203,-0.639089 -0.97385,-0.654305 -1.53685,-1.886834 -0.56301,-1.232528 -0.56301,-2.921548 0,-1.689021 0.56301,-2.921549 0.563,-1.232529 1.53685,-1.871617 0.98907,-0.654306 2.25203,-0.654306 1.24775,0 2.2216,0.654306 0.98906,0.639088 1.55207,1.871617 0.56301,1.232528 0.56301,2.921549 0,1.68902 -0.56301,2.921548 -0.56301,1.232529 -1.55207,1.886834 -0.97385,0.639089 -2.2216,0.639089 z m 0,-1.35426 q 1.27818,0 2.039,-1.049931 0.77604,-1.049932 0.77604,-3.04328 0,-1.993349 -0.77604,-3.04328 -0.76082,-1.049932 -2.039,-1.049932 -1.29339,0 -2.06943,1.049932 -0.76082,1.049931 -0.76082,3.04328 0,1.993348 0.76082,3.04328 0.77604,1.049931 2.06943,1.049931 z"
             id="path27619" />
          <path
             d="m 203.42241,68.047741 q 1.6738,0 2.55636,0.821685 0.89776,0.821686 0.89776,2.449841 v 4.869248 h -1.38469 v -1.065148 q -0.36519,0.563007 -1.04993,0.867335 -0.66952,0.289111 -1.59772,0.289111 -1.35426,0 -2.17595,-0.654305 -0.80647,-0.654305 -0.80647,-1.719453 0,-1.065148 0.77604,-1.704237 0.77603,-0.654305 2.46506,-0.654305 h 2.31289 v -0.289112 q 0,-0.943417 -0.54779,-1.445558 -0.54779,-0.502141 -1.61294,-0.502141 -0.71517,0 -1.39991,0.243462 -0.68474,0.228246 -1.15645,0.623873 l -0.60865,-1.095581 q 0.62387,-0.502141 1.49121,-0.76082 0.86733,-0.273895 1.84118,-0.273895 z m -0.33476,7.106058 q 0.8369,0 1.44556,-0.365193 0.60865,-0.38041 0.88255,-1.065148 v -1.126014 h -2.25203 q -1.8564,0 -1.8564,1.247745 0,0.608656 0.47171,0.958633 0.47171,0.349977 1.30861,0.349977 z"
             id="path27621" />
          <path
             d="m 217.10188,68.047741 q 1.53686,0 2.43463,0.897767 0.91298,0.882551 0.91298,2.602005 v 4.641002 h -1.46077 v -4.473622 q 0,-1.171663 -0.56301,-1.765102 -0.56301,-0.59344 -1.61294,-0.59344 -1.18688,0 -1.87162,0.699954 -0.68473,0.684738 -0.68473,1.978132 v 4.154078 h -1.46078 v -8.064692 h 1.39991 v 1.217312 q 0.44128,-0.623873 1.18688,-0.958634 0.76082,-0.33476 1.71945,-0.33476 z"
             id="path27623" />
          <path
             d="m 229.86842,76.279813 q -1.2021,0 -2.16073,-0.532574 -0.95863,-0.532574 -1.50643,-1.460774 -0.53257,-0.943417 -0.53257,-2.130296 0,-1.18688 0.53257,-2.11508 0.5478,-0.943417 1.50643,-1.460774 0.95863,-0.532574 2.16073,-0.532574 1.20209,0 2.14551,0.532574 0.95863,0.517357 1.49121,1.460774 0.54779,0.9282 0.54779,2.11508 0,1.186879 -0.54779,2.130296 -0.53258,0.9282 -1.49121,1.460774 -0.94342,0.532574 -2.14551,0.532574 z m 0,-1.278178 q 0.77603,0 1.38469,-0.349977 0.62387,-0.365193 0.97385,-1.004282 0.34998,-0.654305 0.34998,-1.491207 0,-0.836902 -0.34998,-1.475991 -0.34998,-0.654305 -0.97385,-1.004283 -0.60866,-0.349977 -1.38469,-0.349977 -0.77604,0 -1.39991,0.349977 -0.60866,0.349978 -0.97385,1.004283 -0.34998,0.639089 -0.34998,1.475991 0,0.836902 0.34998,1.491207 0.36519,0.639089 0.97385,1.004282 0.62387,0.349977 1.39991,0.349977 z"
             id="path27625" />
          <path
             d="m 241.60023,76.279813 q -0.98906,0 -1.90205,-0.258679 -0.91298,-0.273895 -1.43034,-0.684738 l 0.60866,-1.156446 q 0.53257,0.38041 1.29339,0.608656 0.76082,0.228246 1.53686,0.228246 1.91727,0 1.91727,-1.095581 0,-0.365194 -0.25868,-0.578223 -0.25868,-0.21303 -0.65431,-0.304328 -0.38041,-0.106515 -1.09558,-0.228246 -0.97385,-0.152164 -1.59772,-0.349977 -0.60866,-0.197814 -1.04993,-0.669522 -0.44128,-0.471708 -0.44128,-1.323827 0,-1.095581 0.91299,-1.749886 0.91298,-0.669521 2.44984,-0.669521 0.80646,0 1.61293,0.197813 0.80647,0.197813 1.32383,0.532574 l -0.62387,1.156446 q -0.98907,-0.639089 -2.32811,-0.639089 -0.9282,0 -1.41513,0.304328 -0.48692,0.304328 -0.48692,0.80647 0,0.395626 0.27389,0.623872 0.2739,0.228246 0.66953,0.334761 0.41084,0.106515 1.14123,0.243462 0.97385,0.167381 1.56729,0.365194 0.60865,0.182597 1.03471,0.639089 0.42606,0.456492 0.42606,1.278177 0,1.095581 -0.94342,1.749886 -0.9282,0.639089 -2.54114,0.639089 z"
             id="path27627" />
          <path
             d="m 250.48657,74.195166 q 0.42605,0 0.69995,0.304328 0.28911,0.289112 0.28911,0.730388 0,0.228246 -0.0609,0.441275 -0.0456,0.21303 -0.19782,0.654305 l -0.71517,2.11508 h -0.95863 l 0.56301,-2.267244 q -0.28912,-0.106514 -0.47171,-0.349977 -0.16738,-0.258679 -0.16738,-0.593439 0,-0.456493 0.28911,-0.745604 0.28911,-0.289112 0.73039,-0.289112 z"
             id="path27629" />
          <path
             d="m 268.83755,76.310246 q -1.2021,0 -2.32811,-0.365194 -1.1108,-0.38041 -1.74989,-0.973849 l 0.56301,-1.18688 q 0.60866,0.547791 1.55207,0.897768 0.95864,0.334761 1.96292,0.334761 1.32383,0 1.97813,-0.441276 0.65431,-0.456492 0.65431,-1.202095 0,-0.547791 -0.3652,-0.882552 -0.34997,-0.349977 -0.88255,-0.532574 -0.51736,-0.182596 -1.47599,-0.410842 -1.2021,-0.289112 -1.9477,-0.578224 -0.73039,-0.289111 -1.26296,-0.882551 -0.51736,-0.608656 -0.51736,-1.628155 0,-0.852118 0.44128,-1.536856 0.45649,-0.684738 1.36947,-1.095581 0.91299,-0.410843 2.26725,-0.410843 0.94341,0 1.8564,0.243463 0.91298,0.243462 1.56729,0.699954 l -0.50214,1.217312 q -0.66953,-0.426059 -1.43035,-0.639089 -0.76082,-0.228246 -1.4912,-0.228246 -1.2934,0 -1.9477,0.471709 -0.63909,0.471708 -0.63909,1.217312 0,0.54779 0.36519,0.897767 0.3652,0.334761 0.89777,0.532574 0.54779,0.182597 1.47599,0.395627 1.2021,0.289111 1.93248,0.578223 0.73039,0.289112 1.24775,0.882551 0.53257,0.59344 0.53257,1.597722 0,0.836902 -0.45649,1.536857 -0.45649,0.684738 -1.38469,1.095581 -0.9282,0.395626 -2.28246,0.395626 z"
             id="path27631" />
          <path
             d="m 281.6345,76.279813 q -1.2021,0 -2.16073,-0.532574 -0.95863,-0.532574 -1.50642,-1.460774 -0.53258,-0.943417 -0.53258,-2.130296 0,-1.18688 0.53258,-2.11508 0.54779,-0.943417 1.50642,-1.460774 0.95863,-0.532574 2.16073,-0.532574 1.2021,0 2.14551,0.532574 0.95864,0.517357 1.49121,1.460774 0.54779,0.9282 0.54779,2.11508 0,1.186879 -0.54779,2.130296 -0.53257,0.9282 -1.49121,1.460774 -0.94341,0.532574 -2.14551,0.532574 z m 0,-1.278178 q 0.77604,0 1.38469,-0.349977 0.62387,-0.365193 0.97385,-1.004282 0.34998,-0.654305 0.34998,-1.491207 0,-0.836902 -0.34998,-1.475991 -0.34998,-0.654305 -0.97385,-1.004283 -0.60865,-0.349977 -1.38469,-0.349977 -0.77604,0 -1.39991,0.349977 -0.60865,0.349978 -0.97385,1.004283 -0.34998,0.639089 -0.34998,1.475991 0,0.836902 0.34998,1.491207 0.3652,0.639089 0.97385,1.004282 0.62387,0.349977 1.39991,0.349977 z"
             id="path27633" />
          <path
             d="m 291.05342,64.897946 h 1.46078 v 11.290569 h -1.46078 z"
             id="path27635" />
          <path
             d="m 303.24169,75.716806 q -0.31954,0.273896 -0.79125,0.42606 -0.47171,0.136947 -0.97385,0.136947 -1.21732,0 -1.88684,-0.654305 -0.66952,-0.654305 -0.66952,-1.871617 v -4.427973 h -1.36947 v -1.202095 h 1.36947 V 66.35872 h 1.46078 v 1.765103 h 2.31289 v 1.202095 h -2.31289 v 4.367107 q 0,0.654305 0.31954,1.004282 0.33476,0.349978 0.94342,0.349978 0.66952,0 1.14123,-0.38041 z"
             id="path27637" />
          <path
             d="m 315.23219,72.201818 q 0,0.16738 -0.0304,0.441275 h -6.54305 q 0.13695,1.065148 0.9282,1.719454 0.80647,0.639088 1.99335,0.639088 1.44556,0 2.32811,-0.973849 l 0.80647,0.943417 q -0.54779,0.639089 -1.36948,0.973849 -0.80647,0.334761 -1.81075,0.334761 -1.27818,0 -2.26724,-0.517357 -0.98907,-0.532574 -1.53686,-1.475991 -0.53257,-0.943417 -0.53257,-2.130296 0,-1.171663 0.51735,-2.11508 0.53258,-0.943417 1.44556,-1.460774 0.9282,-0.532574 2.08465,-0.532574 1.15645,0 2.05421,0.532574 0.91299,0.517357 1.41513,1.460774 0.51736,0.943417 0.51736,2.160729 z m -3.9867,-2.921549 q -1.04993,0 -1.7651,0.639089 -0.69996,0.639089 -0.82169,1.673804 h 5.17358 q -0.12173,-1.019499 -0.8369,-1.658588 -0.69996,-0.654305 -1.74989,-0.654305 z"
             id="path27639" />
          <path
             d="m 320.4666,68.123823 h 1.46078 v 8.064692 h -1.46078 z m 0.73039,-1.552073 q -0.42606,0 -0.71517,-0.273895 -0.2739,-0.273896 -0.2739,-0.669522 0,-0.395626 0.2739,-0.669522 0.28911,-0.289111 0.71517,-0.289111 0.42606,0 0.69995,0.273895 0.28911,0.258679 0.28911,0.654305 0,0.410843 -0.28911,0.699955 -0.27389,0.273895 -0.69995,0.273895 z"
             id="path27641" />
          <path
             d="m 329.32253,69.478082 q 0.38041,-0.699954 1.12602,-1.065148 0.7456,-0.365193 1.81075,-0.365193 v 1.415125 q -0.12173,-0.01522 -0.33476,-0.01522 -1.18688,0 -1.87162,0.715171 -0.66952,0.699955 -0.66952,2.008565 v 4.01713 h -1.46077 V 68.12382 h 1.3999 z"
             id="path27643" />
          <path
             d="m 340.6435,76.279813 q -1.20209,0 -2.16073,-0.532574 -0.95863,-0.532574 -1.50642,-1.460774 -0.53257,-0.943417 -0.53257,-2.130296 0,-1.18688 0.53257,-2.11508 0.54779,-0.943417 1.50642,-1.460774 0.95864,-0.532574 2.16073,-0.532574 1.2021,0 2.14552,0.532574 0.95863,0.517357 1.4912,1.460774 0.54779,0.9282 0.54779,2.11508 0,1.186879 -0.54779,2.130296 -0.53257,0.9282 -1.4912,1.460774 -0.94342,0.532574 -2.14552,0.532574 z m 0,-1.278178 q 0.77604,0 1.3847,-0.349977 0.62387,-0.365193 0.97384,-1.004282 0.34998,-0.654305 0.34998,-1.491207 0,-0.836902 -0.34998,-1.475991 -0.34997,-0.654305 -0.97384,-1.004283 -0.60866,-0.349977 -1.3847,-0.349977 -0.77603,0 -1.39991,0.349977 -0.60865,0.349978 -0.97385,1.004283 -0.34997,0.639089 -0.34997,1.475991 0,0.836902 0.34997,1.491207 0.3652,0.639089 0.97385,1.004282 0.62388,0.349977 1.39991,0.349977 z"
             id="path27645" />
        </g>
        <path
           d="m 10.939326,62.211973 h 18.272017 c 2.080415,0 3.759504,1.67369 3.759504,3.754105 v 10.502856 c 0,2.080414 -1.679089,3.754105 -3.759504,3.754105 H 10.939326 c -2.0876131,0 -3.7613032,-1.673691 -3.7613032,-3.754105 V 65.966078 c 0,-2.080415 1.6736901,-3.754105 3.7613032,-3.754105 z"
           style="fill:#229e45;fill-opacity:1;fill-rule:nonzero;stroke:none;stroke-width:1.79967"
           id="path10262" />
        <path
           d="M 20.070836,64.089026 9.1684542,71.35788 20.070836,78.338787 30.975017,71.35788 Z"
           style="fill:#f8e509;fill-opacity:1;fill-rule:nonzero;stroke:none;stroke-width:1.79967"
           id="path10264" />
        <path
           d="m 24.69058,71.217506 c 0,2.551927 -2.067817,4.619745 -4.619744,4.619745 -2.544729,0 -4.610747,-2.067818 -4.610747,-4.619745 0,-2.551928 2.066018,-4.617945 4.610747,-4.617945 2.551927,0 4.619744,2.066017 4.619744,4.617945 z"
           style="fill:#2b49a3;fill-opacity:1;fill-rule:nonzero;stroke:none;stroke-width:1.79967"
           id="path10266" />
        <path
           d="m 16.120567,68.834747 c -0.140374,0.239356 -0.266351,0.48591 -0.358134,0.745062 1.637697,0.07739 5.391802,0.583092 8.562815,3.437364 0.118778,-0.287947 0.210561,-0.590291 0.273549,-0.899834 -3.072031,-2.719296 -6.867528,-3.205206 -8.47823,-3.282592 z"
           style="fill:#ffffff;fill-opacity:1;fill-rule:nonzero;stroke:none;stroke-width:1.79967"
           id="path10268" />
      </g>
    </g>
  </g>
</svg>
